{
  "source": "C:\\Users\\Peter\\Desktop\\stuff\\MIUN\\quantitative_research\\video_compression\\videos\\BVI-HD\\BVI-HD_CDVL_videos\\ORIG\\PlasmaAveragePan_1920x1080_60fps.mp4",
  "output": "C:\\Users\\Peter\\Desktop\\stuff\\MIUN\\quantitative_research\\video_compression\\compressed_videos\\BVI-HD\\av1\\4\\PlasmaAveragePan_1920x1080_60fps_av1.mkv",
  "codec": "av1",
  "ok": "Input #0, mov,mp4,m4a,3gp,3g2,mj2, from 'C:\\Users\\Peter\\Desktop\\stuff\\MIUN\\quantitative_research\\video_compression\\videos\\BVI-HD\\BVI-HD_CDVL_videos\\ORIG\\PlasmaAveragePan_1920x1080_60fps.mp4':\n  Metadata:\n    major_brand     : isom\n    minor_version   : 512\n    compatible_brands: isomiso2avc1mp41\n    encoder         : Lavf54.28.101\n  Duration: 00:00:05.00, start: 0.000000, bitrate: 73730 kb/s\n  Stream #0:0[0x1](und): Video: h264 (High 4:4:4 Predictive) (avc1 / 0x31637661), yuv420p(progressive), 1920x1080, 73727 kb/s, 60 fps, 60 tbr, 60 tbn (default)\n    Metadata:\n      handler_name    : VideoHandler\n      vendor_id       : [0][0][0][0]\n[out#0/matroska @ 000002012f8f7900] Codec AVOption b:a (set bitrate (in bits/s)) has not been used for any stream. The most likely reason is either wrong type (e.g. a video option with no video streams) or that it is a private option of some decoder which was not actually used for any stream.\nStream mapping:\n  Stream #0:0 -> #0:0 (h264 (native) -> av1 (libsvtav1))\nPress [q] to stop, [?] for help\nSvt[info]: -------------------------------------------\nSvt[info]: SVT [version]:\tSVT-AV1 Encoder Lib v3.1.0-19-g6ecfe8ec\nSvt[info]: SVT [build]  :\tGCC 15.2.0\t 64 bit\nSvt[info]: LIB Build date: Aug 17 2025 11:37:13\nSvt[info]: -------------------------------------------\nSvt[info]: Level of Parallelism: 5\nSvt[info]: Number of PPCS 93\nSvt[info]: [asm level on system : up to avx2]\nSvt[info]: [asm level selected : up to avx2]\nSvt[info]: -------------------------------------------\nSvt[info]: SVT [config]: main profile\ttier (auto)\tlevel (auto)\nSvt[info]: SVT [config]: width / height / fps numerator / fps denominator \t\t: 1920 / 1080 / 60 / 1\nSvt[info]: SVT [config]: bit-depth / color format \t\t\t\t\t: 8 / YUV420\nSvt[info]: SVT [config]: preset / tune / pred struct \t\t\t\t\t: 4 / PSNR / random access\nSvt[info]: SVT [config]: gop size / mini-gop size / key-frame type \t\t\t: 321 / 16 / key frame\nSvt[info]: SVT [config]: BRC mode / target bitrate (kbps)\t\t\t\t: VBR / 4000 \nSvt[info]: SVT [config]: AQ mode / Variance Boost \t\t\t\t\t: 2 / 0\nSvt[info]: SVT [config]: sharpness / luminance-based QP bias \t\t\t\t: 0 / 0\nSvt[info]: SVT [config]: QP scale compress strength \t\t\t\t\t: 0\nSvt[info]: -------------------------------------------\nOutput #0, matroska, to 'C:\\Users\\Peter\\Desktop\\stuff\\MIUN\\quantitative_research\\video_compression\\compressed_videos\\BVI-HD\\av1\\4\\PlasmaAveragePan_1920x1080_60fps_av1.mkv':\n  Metadata:\n    major_brand     : isom\n    minor_version   : 512\n    compatible_brands: isomiso2avc1mp41\n    encoder         : Lavf62.3.100\n  Stream #0:0(und): Video: av1 (AV01 / 0x31305641), yuv420p(tv, progressive), 1920x1080, q=2-31, 4000 kb/s, 60 fps, 1k tbn (default)\n    Metadata:\n      encoder         : Lavc62.11.100 libsvtav1\n      handler_name    : VideoHandler\n      vendor_id       : [0][0][0][0]\n    Side data:\n      cpb: bitrate max/min/avg: 0/0/4000000 buffer size: 4000000 vbv_delay: N/A\nframe=    0 fps=0.0 q=0.0 size=       0KiB time=N/A bitrate=N/A speed=N/A elapsed=0:00:00.52    \nframe=    0 fps=0.0 q=0.0 size=       0KiB time=N/A bitrate=N/A speed=N/A elapsed=0:00:01.06    \nframe=    0 fps=0.0 q=0.0 size=       0KiB time=N/A bitrate=N/A speed=N/A elapsed=0:00:01.58    \nframe=    0 fps=0.0 q=0.0 size=       0KiB time=N/A bitrate=N/A speed=N/A elapsed=0:00:02.09    \nframe=    1 fps=0.4 q=12.0 size=       1KiB time=00:00:00.00 bitrate=N/A speed=   0x elapsed=0:00:02.61    \nframe=    1 fps=0.3 q=12.0 size=       1KiB time=00:00:00.00 bitrate=N/A speed=   0x elapsed=0:00:03.14    \nframe=    1 fps=0.3 q=12.0 size=       1KiB time=00:00:00.00 bitrate=N/A speed=   0x elapsed=0:00:03.66    \nframe=    2 fps=0.5 q=26.0 size=       1KiB time=00:00:00.01 bitrate= 341.8kbits/s speed=0.00399x elapsed=0:00:04.17    \nframe=    4 fps=0.9 q=26.0 size=       1KiB time=00:00:00.05 bitrate= 113.9kbits/s speed=0.0106x elapsed=0:00:04.70    \nframe=    6 fps=1.1 q=26.0 size=       1KiB time=00:00:00.08 bitrate=  68.4kbits/s speed=0.0159x elapsed=0:00:05.22    \nframe=    9 fps=1.6 q=19.0 size=       1KiB time=00:00:00.13 bitrate=  42.7kbits/s speed=0.0232x elapsed=0:00:05.75    \nframe=   10 fps=1.6 q=26.0 size=       1KiB time=00:00:00.15 bitrate=  38.0kbits/s speed=0.0239x elapsed=0:00:06.27    \nframe=   11 fps=1.6 q=21.0 size=       1KiB time=00:00:00.16 bitrate=  34.2kbits/s speed=0.0245x elapsed=0:00:06.79    \nframe=   13 fps=1.8 q=19.0 size=       1KiB time=00:00:00.20 bitrate=  28.5kbits/s speed=0.0273x elapsed=0:00:07.32    \nframe=   16 fps=2.0 q=25.0 size=       1KiB time=00:00:00.25 bitrate=  22.8kbits/s speed=0.0318x elapsed=0:00:07.85    \nframe=   18 fps=2.1 q=26.0 size=       1KiB time=00:00:00.28 bitrate=  20.1kbits/s speed=0.0336x elapsed=0:00:08.42    \nframe=   19 fps=2.1 q=20.0 size=       1KiB time=00:00:00.30 bitrate=  19.0kbits/s speed=0.0333x elapsed=0:00:09.00    \nframe=   22 fps=2.3 q=26.0 size=       1KiB time=00:00:00.35 bitrate=  16.3kbits/s speed=0.0367x elapsed=0:00:09.53    \nframe=   23 fps=2.3 q=21.0 size=       1KiB time=00:00:00.36 bitrate=  15.5kbits/s speed=0.0364x elapsed=0:00:10.07    \nframe=   27 fps=2.5 q=22.0 size=       1KiB time=00:00:00.43 bitrate=  13.1kbits/s speed=0.0409x elapsed=0:00:10.60    \nframe=   32 fps=2.9 q=26.0 size=       1KiB time=00:00:00.51 bitrate=  11.0kbits/s speed=0.0464x elapsed=0:00:11.14    \nframe=   34 fps=2.9 q=26.0 size=       1KiB time=00:00:00.55 bitrate=  10.4kbits/s speed=0.0472x elapsed=0:00:11.65    \nframe=   37 fps=3.0 q=20.0 size=       1KiB time=00:00:00.60 bitrate=   9.5kbits/s speed=0.0493x elapsed=0:00:12.17    \nframe=   39 fps=3.1 q=23.0 size=       1KiB time=00:00:00.63 bitrate=   9.0kbits/s speed=0.0499x elapsed=0:00:12.70    \nframe=   42 fps=3.2 q=26.0 size=       1KiB time=00:00:00.68 bitrate=   8.3kbits/s speed=0.0517x elapsed=0:00:13.20    \nframe=   46 fps=3.4 q=27.0 size=       1KiB time=00:00:00.75 bitrate=   7.6kbits/s speed=0.0546x elapsed=0:00:13.72    \nframe=   50 fps=3.5 q=27.0 size=       1KiB time=00:00:00.81 bitrate=   7.0kbits/s speed=0.0573x elapsed=0:00:14.24    \nframe=   53 fps=3.6 q=21.0 size=       1KiB time=00:00:00.86 bitrate=   6.6kbits/s speed=0.0587x elapsed=0:00:14.75    \nframe=   55 fps=3.6 q=24.0 size=       1KiB time=00:00:00.90 bitrate=   6.3kbits/s speed=0.0589x elapsed=0:00:15.28    \nframe=   58 fps=3.7 q=27.0 size=       1KiB time=00:00:00.95 bitrate=   6.0kbits/s speed=0.0601x elapsed=0:00:15.80    \nframe=   61 fps=3.7 q=21.0 size=       1KiB time=00:00:01.00 bitrate=   5.7kbits/s speed=0.0613x elapsed=0:00:16.31    \nframe=   64 fps=3.8 q=28.0 size=       1KiB time=00:00:01.05 bitrate=   5.4kbits/s speed=0.0622x elapsed=0:00:16.86    \nframe=   67 fps=3.9 q=25.0 size=       1KiB time=00:00:01.10 bitrate=   5.2kbits/s speed=0.0632x elapsed=0:00:17.39    \nframe=   69 fps=3.8 q=22.0 size=       1KiB time=00:00:01.13 bitrate=   5.0kbits/s speed=0.0632x elapsed=0:00:17.92    \nframe=   71 fps=3.8 q=25.0 size=       1KiB time=00:00:01.16 bitrate=   4.9kbits/s speed=0.0632x elapsed=0:00:18.45    \nframe=   73 fps=3.8 q=21.0 size=       1KiB time=00:00:01.20 bitrate=   4.7kbits/s speed=0.0631x elapsed=0:00:19.00    \nframe=   76 fps=3.9 q=29.0 size=       1KiB time=00:00:01.25 bitrate=   4.6kbits/s speed=0.064x elapsed=0:00:19.52    \nframe=   80 fps=4.0 q=29.0 size=       1KiB time=00:00:01.31 bitrate=   4.3kbits/s speed=0.0656x elapsed=0:00:20.06    \nframe=   82 fps=4.0 q=29.0 size=       1KiB time=00:00:01.35 bitrate=   4.2kbits/s speed=0.0656x elapsed=0:00:20.58    \nframe=   84 fps=4.0 q=29.0 size=       1KiB time=00:00:01.38 bitrate=   4.1kbits/s speed=0.0655x elapsed=0:00:21.11    \nframe=   86 fps=4.0 q=29.0 size=       1KiB time=00:00:01.41 bitrate=   4.0kbits/s speed=0.0655x elapsed=0:00:21.64    \nframe=   88 fps=4.0 q=29.0 size=       1KiB time=00:00:01.45 bitrate=   3.9kbits/s speed=0.0654x elapsed=0:00:22.16    \nframe=   91 fps=4.0 q=26.0 size=       1KiB time=00:00:01.50 bitrate=   3.8kbits/s speed=0.0661x elapsed=0:00:22.68    \nframe=   94 fps=4.1 q=30.0 size=       1KiB time=00:00:01.55 bitrate=   3.7kbits/s speed=0.0668x elapsed=0:00:23.18    \nframe=   97 fps=4.1 q=15.0 size=       1KiB time=00:00:01.60 bitrate=   3.6kbits/s speed=0.0675x elapsed=0:00:23.70    \nframe=   99 fps=4.1 q=27.0 size=       1KiB time=00:00:01.63 bitrate=   3.5kbits/s speed=0.0674x elapsed=0:00:24.23    \nframe=  102 fps=4.1 q=30.0 size=       1KiB time=00:00:01.68 bitrate=   3.4kbits/s speed=0.068x elapsed=0:00:24.76    \nframe=  103 fps=4.1 q=27.0 size=       1KiB time=00:00:01.70 bitrate=   3.4kbits/s speed=0.0672x elapsed=0:00:25.30    \nframe=  107 fps=4.1 q=27.0 size=       1KiB time=00:00:01.76 bitrate=   3.2kbits/s speed=0.0683x elapsed=0:00:25.86    \nframe=  110 fps=4.2 q=30.0 size=       1KiB time=00:00:01.81 bitrate=   3.1kbits/s speed=0.0689x elapsed=0:00:26.38    \nframe=  113 fps=4.2 q=16.0 size=       1KiB time=00:00:01.86 bitrate=   3.1kbits/s speed=0.0693x elapsed=0:00:26.92    \nframe=  115 fps=4.2 q=27.0 size=       1KiB time=00:00:01.90 bitrate=   3.0kbits/s speed=0.0692x elapsed=0:00:27.45    \nframe=  118 fps=4.2 q=30.0 size=       1KiB time=00:00:01.95 bitrate=   2.9kbits/s speed=0.0697x elapsed=0:00:27.98    \nframe=  119 fps=4.2 q=27.0 size=       1KiB time=00:00:01.96 bitrate=   2.9kbits/s speed=0.069x elapsed=0:00:28.52    \nframe=  123 fps=4.2 q=27.0 size=       1KiB time=00:00:02.03 bitrate=   2.8kbits/s speed=0.07x elapsed=0:00:29.05    \nframe=  126 fps=4.3 q=30.0 size=       1KiB time=00:00:02.08 bitrate=   2.7kbits/s speed=0.0704x elapsed=0:00:29.57    \nframe=  130 fps=4.3 q=30.0 size=       1KiB time=00:00:02.15 bitrate=   2.6kbits/s speed=0.0714x elapsed=0:00:30.09    \nframe=  132 fps=4.3 q=30.0 size=       1KiB time=00:00:02.18 bitrate=   2.6kbits/s speed=0.0713x elapsed=0:00:30.62    \nframe=  134 fps=4.3 q=30.0 size=       1KiB time=00:00:02.21 bitrate=   2.6kbits/s speed=0.0711x elapsed=0:00:31.15    \nframe=  137 fps=4.3 q=24.0 size=       1KiB time=00:00:02.26 bitrate=   2.5kbits/s speed=0.0716x elapsed=0:00:31.67    \nframe=  141 fps=4.4 q=24.0 size=       1KiB time=00:00:02.33 bitrate=   2.4kbits/s speed=0.0725x elapsed=0:00:32.20    \nframe=  144 fps=4.4 q=30.0 size=       1KiB time=00:00:02.38 bitrate=   2.4kbits/s speed=0.0728x elapsed=0:00:32.74    \nframe=  146 fps=4.4 q=30.0 size=       1KiB time=00:00:02.41 bitrate=   2.4kbits/s speed=0.0726x elapsed=0:00:33.30    \nframe=  149 fps=4.4 q=24.0 size=       1KiB time=00:00:02.46 bitrate=   2.3kbits/s speed=0.0729x elapsed=0:00:33.82    \nframe=  151 fps=4.4 q=27.0 size=       1KiB time=00:00:02.50 bitrate=   2.3kbits/s speed=0.0728x elapsed=0:00:34.33    \nframe=  153 fps=4.4 q=24.0 size=       1KiB time=00:00:02.53 bitrate=   2.2kbits/s speed=0.0726x elapsed=0:00:34.88    \nframe=  157 fps=4.4 q=24.0 size=       1KiB time=00:00:02.60 bitrate=   2.2kbits/s speed=0.0735x elapsed=0:00:35.39    \nframe=  160 fps=4.5 q=30.0 size=       1KiB time=00:00:02.65 bitrate=   2.1kbits/s speed=0.0737x elapsed=0:00:35.93    \nframe=  163 fps=4.5 q=27.0 size=       1KiB time=00:00:02.70 bitrate=   2.1kbits/s speed=0.0741x elapsed=0:00:36.45    \nframe=  165 fps=4.5 q=24.0 size=       1KiB time=00:00:02.73 bitrate=   2.1kbits/s speed=0.0739x elapsed=0:00:36.98    \nframe=  167 fps=4.5 q=27.0 size=       1KiB time=00:00:02.76 bitrate=   2.1kbits/s speed=0.0737x elapsed=0:00:37.51    \nframe=  170 fps=4.5 q=30.0 size=       1KiB time=00:00:02.81 bitrate=   2.0kbits/s speed=0.074x elapsed=0:00:38.04    \nframe=  173 fps=4.5 q=24.0 size=       1KiB time=00:00:02.86 bitrate=   2.0kbits/s speed=0.0743x elapsed=0:00:38.57    \nframe=  177 fps=4.5 q=17.0 size=       1KiB time=00:00:02.93 bitrate=   1.9kbits/s speed=0.075x elapsed=0:00:39.10    \nframe=  180 fps=4.5 q=31.0 size=       1KiB time=00:00:02.98 bitrate=   1.9kbits/s speed=0.0753x elapsed=0:00:39.64    \nframe=  182 fps=4.5 q=31.0 size=       1KiB time=00:00:03.01 bitrate=   1.9kbits/s speed=0.0751x elapsed=0:00:40.16    \nframe=  185 fps=4.5 q=24.0 size=       1KiB time=00:00:03.06 bitrate=   1.9kbits/s speed=0.0754x elapsed=0:00:40.69    \nframe=  189 fps=4.6 q=24.0 size=       1KiB time=00:00:03.13 bitrate=   1.8kbits/s speed=0.076x elapsed=0:00:41.22    \nframe=  192 fps=4.6 q=31.0 size=       1KiB time=00:00:03.18 bitrate=   1.8kbits/s speed=0.0763x elapsed=0:00:41.74    \nframe=  195 fps=4.6 q=28.0 size=       1KiB time=00:00:03.23 bitrate=   1.8kbits/s speed=0.0765x elapsed=0:00:42.26    \nframe=  198 fps=4.6 q=31.0 size=       1KiB time=00:00:03.28 bitrate=   1.7kbits/s speed=0.0767x elapsed=0:00:42.79    \nframe=  199 fps=4.6 q=28.0 size=       1KiB time=00:00:03.30 bitrate=   1.7kbits/s speed=0.0761x elapsed=0:00:43.36    \nframe=  205 fps=4.7 q=25.0 size=       1KiB time=00:00:03.40 bitrate=   1.7kbits/s speed=0.0775x elapsed=0:00:43.89    \nframe=  207 fps=4.7 q=28.0 size=       1KiB time=00:00:03.43 bitrate=   1.7kbits/s speed=0.0773x elapsed=0:00:44.43    \nframe=  211 fps=4.7 q=28.0 size=       1KiB time=00:00:03.50 bitrate=   1.6kbits/s speed=0.0779x elapsed=0:00:44.95    \nframe=  215 fps=4.7 q=28.0 size=       1KiB time=00:00:03.56 bitrate=   1.6kbits/s speed=0.0784x elapsed=0:00:45.47    \nframe=  217 fps=4.7 q=25.0 size=       1KiB time=00:00:03.60 bitrate=   1.6kbits/s speed=0.0783x elapsed=0:00:45.99    \nframe=  221 fps=4.8 q=25.0 size=       1KiB time=00:00:03.66 bitrate=   1.6kbits/s speed=0.0788x elapsed=0:00:46.52    \nframe=  225 fps=4.8 q=18.0 size=       1KiB time=00:00:03.73 bitrate=   1.5kbits/s speed=0.0794x elapsed=0:00:47.04    \nframe=  227 fps=4.8 q=27.0 size=       1KiB time=00:00:03.73 bitrate=   1.5kbits/s speed=0.0785x elapsed=0:00:47.55    \nframe=  229 fps=4.8 q=24.0 size=       1KiB time=00:00:03.80 bitrate=   1.5kbits/s speed=0.079x elapsed=0:00:48.10    \nframe=  233 fps=4.8 q=25.0 size=       1KiB time=00:00:03.86 bitrate=   1.5kbits/s speed=0.0795x elapsed=0:00:48.63    \nframe=  235 fps=4.8 q=27.0 size=       1KiB time=00:00:03.90 bitrate=   1.5kbits/s speed=0.0793x elapsed=0:00:49.15    \nframe=  237 fps=4.8 q=24.0 size=       1KiB time=00:00:03.93 bitrate=   1.4kbits/s speed=0.0792x elapsed=0:00:49.68    \nframe=  241 fps=4.8 q=19.0 size=       1KiB time=00:00:04.00 bitrate=   1.4kbits/s speed=0.0796x elapsed=0:00:50.21    \nframe=  245 fps=4.8 q=25.0 size=       1KiB time=00:00:04.06 bitrate=   1.4kbits/s speed=0.0801x elapsed=0:00:50.74    \nframe=  249 fps=4.9 q=24.0 size=       1KiB time=00:00:04.13 bitrate=   1.4kbits/s speed=0.0806x elapsed=0:00:51.27    \nframe=  249 fps=4.8 q=24.0 size=       1KiB time=00:00:04.13 bitrate=   1.4kbits/s speed=0.0798x elapsed=0:00:51.80    \nframe=  253 fps=4.8 q=25.0 size=       1KiB time=00:00:04.20 bitrate=   1.4kbits/s speed=0.0802x elapsed=0:00:52.34    \nframe=  255 fps=4.8 q=28.0 size=       1KiB time=00:00:04.23 bitrate=   1.3kbits/s speed=0.0801x elapsed=0:00:52.86    \nframe=  259 fps=4.9 q=28.0 size=       1KiB time=00:00:04.30 bitrate=   1.3kbits/s speed=0.0805x elapsed=0:00:53.39    \nframe=  261 fps=4.8 q=25.0 size=       1KiB time=00:00:04.33 bitrate=   1.3kbits/s speed=0.0803x elapsed=0:00:53.93    \nframe=  265 fps=4.9 q=25.0 size=       1KiB time=00:00:04.40 bitrate=   1.3kbits/s speed=0.0808x elapsed=0:00:54.45    \nframe=  267 fps=4.9 q=30.0 size=       1KiB time=00:00:04.43 bitrate=   1.3kbits/s speed=0.0806x elapsed=0:00:54.97    \nframe=  269 fps=4.8 q=28.0 size=       1KiB time=00:00:04.46 bitrate=   1.3kbits/s speed=0.0805x elapsed=0:00:55.50    \nframe=  273 fps=4.9 q=18.0 size=       1KiB time=00:00:04.53 bitrate=   1.3kbits/s speed=0.0809x elapsed=0:00:56.04    \nframe=  277 fps=4.9 q=31.0 size=       1KiB time=00:00:04.60 bitrate=   1.2kbits/s speed=0.0813x elapsed=0:00:56.56    \nframe=  281 fps=4.9 q=28.0 size=       1KiB time=00:00:04.66 bitrate=   1.2kbits/s speed=0.0818x elapsed=0:00:57.08    \nframe=  285 fps=4.9 q=31.0 size=       1KiB time=00:00:04.73 bitrate=   1.2kbits/s speed=0.0822x elapsed=0:00:57.60    \nframe=  287 fps=4.9 q=31.0 size=       1KiB time=00:00:04.76 bitrate=   1.2kbits/s speed=0.082x elapsed=0:00:58.12    \n[out#0/matroska @ 000002012f8f7900] video:2668KiB audio:0KiB subtitle:0KiB other streams:0KiB global headers:0KiB muxing overhead: 0.079099%\nframe=  300 fps=5.1 q=31.0 Lsize=    2670KiB time=00:00:04.98 bitrate=4389.3kbits/s speed=0.0851x elapsed=0:00:58.58    \n",
  "seconds": 59.05495023727417,
  "probe_out": {}
}